<svg width="16" height="16" viewBox="0 0 16 16" fill="none" xmlns="http://www.w3.org/2000/svg">
<path d="M3.5 6.50002H12.5C12.5989 6.5 12.6955 6.47066 12.7777 6.41572C12.8599 6.36078 12.924 6.28269 12.9618 6.19134C12.9997 6.09999 13.0096 5.99948 12.9903 5.9025C12.971 5.80553 12.9234 5.71644 12.8535 5.64652L8.3535 1.14652C8.30709 1.10007 8.25199 1.06322 8.19133 1.03808C8.13068 1.01294 8.06566 1 8 1C7.93434 1 7.86933 1.01294 7.80867 1.03808C7.74801 1.06322 7.69291 1.10007 7.6465 1.14652L3.1465 5.64652C3.0766 5.71644 3.02899 5.80553 3.00971 5.9025C2.99042 5.99948 3.00033 6.09999 3.03816 6.19134C3.076 6.28269 3.14007 6.36078 3.22227 6.41572C3.30448 6.47066 3.40113 6.5 3.5 6.50002Z" fill="#CACACA"/>
<path d="M12.5 9.5H3.5C3.40113 9.50002 3.30448 9.52936 3.22227 9.5843C3.14007 9.63924 3.076 9.71732 3.03816 9.80867C3.00033 9.90002 2.99042 10.0005 3.00971 10.0975C3.02899 10.1945 3.0766 10.2836 3.1465 10.3535L7.6465 14.8535C7.69291 14.8999 7.74802 14.9368 7.80867 14.9619C7.86933 14.9871 7.93434 15 8 15C8.06566 15 8.13067 14.9871 8.19133 14.9619C8.25198 14.9368 8.30709 14.8999 8.3535 14.8535L12.8535 10.3535C12.9234 10.2836 12.971 10.1945 12.9903 10.0975C13.0096 10.0005 12.9997 9.90002 12.9618 9.80867C12.924 9.71732 12.8599 9.63924 12.7777 9.5843C12.6955 9.52936 12.5989 9.50002 12.5 9.5Z" fill="#CACACA"/>
</svg>
